{"title":"Bullet Raja (2013) CAM XVID","uid":9271182,"size":726396608,"categoryP":"video","categoryS":"movies","magnet":"?xt=urn:btih:44951c98f77f02db7d565ef1bf4bbe6d1fe10fef&amp;dn=Bullet+Raja+%282013%29+CAM+XVID&amp;tr=udp%3A%2F%2Ftracker.openbittorrent.com%3A80&amp;tr=udp%3A%2F%2Fopen.demonii.com%3A1337&amp;tr=udp%3A%2F%2Ftracker.coppersurfer.tk%3A6969&amp;tr=udp%3A%2F%2Fexodus.desync.com%3A6969","seeders":1,"leechers":0,"uploader":"HGZ123","files":1,"time":1385782241,"description":"SCREENS:-\n\nGeneral\nComplete name : Bullet Raja (2013) - 1CD -ScamRip(Xvid-MP3) {GRYMS}.avi\nFormat : AVI\nFormat/Info : Audio Video Interleave\nFile size : 693 MiB\nDuration : 2h 6mn\nOverall bit rate : 765 Kbps\n\nimage\n\nVideo\nID : 0\nFormat : MPEG-4 Visual\nFormat profile : Advanced Simple@L5\nFormat settings, BVOP : 2\nFormat settings, QPel : No\nFormat settings, GMC : No warppoints\nFormat settings, Matrix : Default (H.263)\nCodec ID : XVID\nCodec ID/Hint : XviD\nDuration : 2h 6mn\nBit rate : 630 Kbps\nWidth : 640 pixels\nHeight : 272 pixels\nDisplay aspect ratio : 2.35:1\nFrame rate : 25.000 fps\nColor space : YUV\nChroma subsampling : 4:2:0\nBit depth : 8 bits\nScan type : Progressive\nCompression mode : Lossy\nBits/(Pixel*Frame) : 0.145\nStream size : 571 MiB (82%)\nWriting library : XviD 1.2.1 (UTC 2008-12-04)\n\nimage\n\nAudio\nID : 1\nFormat : MPEG Audio\nFormat version : Version 1\nFormat profile : Layer 3\nMode : Joint stereo\nMode extension : MS Stereo\nCodec ID : 55\nCodec ID/Hint : MP3\nDuration : 2h 6mn\nBit rate mode : Constant\nBit rate : 128 Kbps\nChannel(s) : 2 channels\nSampling rate : 48.0 KHz\nCompression mode : Lossy\nStream size : 116 MiB (17%)\nAlignment : Aligned on interleaves\nInterleave, duration : 160 ms (4.00 video frames)\nInterleave, preload duration : 216 ms\nTitle : VTS_01_1 Tc0 L2 2ch 48 128 DELAY 0ms\nWriting library : LAME3.99r\nEncoding settings : -m j -V 4 -q 2 -lowpass 17 -b 128","torrent":{"xt":"urn:btih:44951c98f77f02db7d565ef1bf4bbe6d1fe10fef","amp;dn":"Bullet+Raja+%282013%29+CAM+XVID","amp;tr":["udp%3A%2F%2Ftracker.openbittorrent.com%3A80","udp%3A%2F%2Fopen.demonii.com%3A1337","udp%3A%2F%2Ftracker.coppersurfer.tk%3A6969","udp%3A%2F%2Fexodus.desync.com%3A6969"],"infoHash":"44951c98f77f02db7d565ef1bf4bbe6d1fe10fef","infoHashBuffer":{"type":"Buffer","data":[68,149,28,152,247,127,2,219,125,86,94,241,191,75,190,109,31,225,15,239]},"announce":[],"urlList":[]}}